<?xml version="1.0" encoding="utf-8"?>
<svg version="1.1" xmlns="http://www.w3.org/2000/svg" x="0px" y="0px"
     viewBox="0 0 147 30" style="enable-background:new 0 0 147 30;" xml:space="preserve">
<g>
	<g>
		<path fill="#0000ff" d="M112.7,0h-2.9c-0.4,0-0.6,0.2-0.6,0.6v7.1l-4.3-6.3c-0.7-1-1.1-1.4-2.7-1.4h-1.7c-1.6,0-2.3,0.8-2.3,2.6v9.5
			c0,0.4,0.2,0.6,0.6,0.6h2.9c0.4,0,0.6-0.2,0.6-0.6V5l4.4,6.3c0.7,1,1.1,1.4,2.7,1.4h1.7c1.6,0,2.3-0.8,2.3-2.6V0.6
			C113.3,0.2,113.1,0,112.7,0z"/>
		<path fill="#0000ff" d="M112.7,17.2h-2.9c-0.4,0-0.6,0.2-0.6,0.6V25l-4.3-6.3c-0.7-1-1.1-1.4-2.7-1.4h-1.7c-1.6,0-2.3,0.8-2.3,2.6
			v9.5c0,0.4,0.2,0.6,0.6,0.6h2.9c0.4,0,0.6-0.2,0.6-0.6v-7.1l4.4,6.3c0.7,1,1.1,1.4,2.7,1.4h1.7c1.6,0,2.3-0.8,2.3-2.6v-9.5
			C113.3,17.4,113.1,17.2,112.7,17.2z"/>
	</g>
	<path fill="#0000ff" d="M18.2,6.4c0.4,0,0.6,0.2,0.6,0.6v2.7c0,0.4-0.2,0.7-0.6,0.7H7.6c-0.5,0-1,0-1.3,0.1S5.7,10.8,5.5,11
		c-0.2,0.2-0.3,0.5-0.4,0.9C5,12.3,5,12.8,5,13.4h13.1c0.4,0,0.6,0.2,0.6,0.6v2.3c0,0.4-0.2,0.6-0.6,0.6H5v6c0,0.4-0.2,0.6-0.6,0.6
		H1.2c-0.4,0-0.6-0.2-0.6-0.6v-10c0-1.2,0.1-2.2,0.4-3c0.3-0.8,0.7-1.5,1.2-2S3.4,7,4.2,6.8c0.9-0.2,1.9-0.4,3.2-0.4H18.2z"/>
	<path fill="#0000ff" d="M45.6,6.4c1.9,0,3.3,0.4,4.1,1.3c0.8,0.9,1.2,2.1,1.2,3.8V13c0,1.4-0.3,2.4-0.8,3.2c-0.5,0.8-1.4,1.4-2.6,1.6
		l3.9,5c0.1,0.1,0.1,0.3,0.1,0.4s-0.2,0.3-0.4,0.3h-3.8c-0.2,0-0.4,0-0.5-0.1c-0.1-0.1-0.2-0.1-0.3-0.3L43,18.3h-6.9v4.6
		c0,0.4-0.2,0.6-0.6,0.6h-3.2c-0.4,0-0.6-0.2-0.6-0.6V7.2c0-0.5,0.2-0.7,0.7-0.7H45.6z M36.1,14.8h8.6c0.7,0,1.2-0.1,1.4-0.4
		c0.3-0.3,0.4-0.7,0.4-1.3v-1.1c0-0.6-0.1-1-0.4-1.3c-0.3-0.3-0.7-0.4-1.4-0.4h-8.3c-0.2,0-0.3,0.1-0.3,0.3V14.8z"/>
	<path fill="#0000ff" d="M78.4,6.4c1.3,0,2.3,0.1,3.2,0.4c0.9,0.2,1.6,0.6,2.1,1.1s0.9,1.2,1.2,2c0.3,0.8,0.4,1.8,0.4,3v4.2
		c0,1.2-0.1,2.2-0.4,3c-0.3,0.8-0.7,1.5-1.2,2s-1.3,0.9-2.1,1.1c-0.9,0.2-1.9,0.3-3.2,0.3h-7.6c-1.3,0-2.3-0.1-3.2-0.3
		c-0.9-0.2-1.6-0.6-2.1-1.1s-0.9-1.2-1.2-2c-0.3-0.8-0.4-1.8-0.4-3v-4.2c0-1.2,0.1-2.2,0.4-3c0.3-0.8,0.7-1.5,1.2-2s1.3-0.9,2.1-1.1
		c0.9-0.2,1.9-0.4,3.2-0.4H78.4z M68.2,16.8c0,0.6,0,1,0.1,1.4c0.1,0.4,0.2,0.6,0.4,0.9c0.2,0.2,0.5,0.4,0.8,0.4
		c0.3,0.1,0.8,0.1,1.3,0.1h7.3c0.5,0,1,0,1.3-0.1c0.3-0.1,0.6-0.2,0.8-0.4c0.2-0.2,0.3-0.5,0.4-0.9c0.1-0.4,0.1-0.8,0.1-1.4v-3.5
		c0-0.6,0-1-0.1-1.4c-0.1-0.4-0.2-0.6-0.4-0.8c-0.2-0.2-0.5-0.3-0.8-0.4c-0.3-0.1-0.8-0.1-1.3-0.1h-7.3c-0.5,0-1,0-1.3,0.1
		c-0.3,0.1-0.6,0.2-0.8,0.4c-0.2,0.2-0.3,0.5-0.4,0.8c-0.1,0.4-0.1,0.8-0.1,1.4V16.8z"/>
	<path fill="#0000ff" d="M145.9,6.4c0.4,0,0.6,0.2,0.6,0.6v2.9c0,0.4-0.2,0.6-0.6,0.6h-7.4v12.4c0,0.4-0.2,0.6-0.6,0.6h-3.2
		c-0.4,0-0.7-0.2-0.7-0.6V10.6h-7.3c-0.4,0-0.6-0.2-0.6-0.6V7.1c0-0.4,0.2-0.6,0.6-0.6H145.9z"/>
</g>
</svg>
