<?xml version="1.0" encoding="UTF-8" standalone="no"?><!DOCTYPE svg PUBLIC "-//W3C//DTD SVG 1.1//EN"
		"http://www.w3.org/Graphics/SVG/1.1/DTD/svg11.dtd">
<svg width="100%" height="100%" viewBox="0 0 600 200" version="1.1" xmlns="http://www.w3.org/2000/svg"
     xml:space="preserve"
     style="fill-rule:evenodd;clip-rule:evenodd;stroke-linejoin:round;stroke-miterlimit:2;"><rect id="ArtBoard1" x="0" y="0" width="600" height="200" style="fill:none;"/>
	<g><path id="Pfad_335" d="M134.012,67.762c-0.785,-1 -1.874,-1.72 -3.102,-2.049c-1.63,-0.437 -3.314,-0.638 -5,-0.599l-12.598,0c-1.473,-0.019 -2.945,0.081 -4.401,0.299c-1.153,0.182 -2.248,0.626 -3.201,1.3c-1.004,0.745 -1.853,1.679 -2.5,2.749c-0.86,1.437 -1.563,2.962 -2.098,4.549l-16.499,44.199c-0.188,0.61 -0.765,1.021 -1.402,1l-1.201,0c-0.618,0.035 -1.174,-0.393 -1.299,-1l-16.7,-44.199c-0.593,-1.572 -1.312,-3.093 -2.151,-4.549c-0.622,-1.076 -1.459,-2.012 -2.459,-2.749c-0.953,-0.674 -2.048,-1.118 -3.201,-1.3c-1.457,-0.218 -2.929,-0.318 -4.401,-0.299l-13,0c-1.686,-0.039 -3.37,0.162 -5,0.599c-1.228,0.329 -2.317,1.048 -3.102,2.049c-0.794,1.114 -1.324,2.395 -1.549,3.745c-0.327,1.849 -0.478,3.725 -0.451,5.603l0,55.399c-0.015,0.108 -0.023,0.217 -0.023,0.326c-0,1.259 1.036,2.295 2.295,2.295c0.109,0 0.218,-0.008 0.326,-0.023l12.201,-0c0.108,0.015 0.217,0.023 0.326,0.023c1.261,0 2.299,-1.038 2.299,-2.299c-0,-0.108 -0.008,-0.215 -0.023,-0.322l0,-49.1c0,-0.664 0.262,-1 0.799,-1l0.799,-0c0.509,-0.054 0.997,0.231 1.201,0.7l15.901,40.601c0.672,1.871 1.545,3.664 2.602,5.348c0.837,1.327 1.883,2.509 3.099,3.5c1.153,0.911 2.481,1.575 3.901,1.951c1.667,0.423 3.383,0.624 5.102,0.598l5.701,-0c1.719,0.026 3.435,-0.175 5.102,-0.598c1.42,-0.377 2.748,-1.041 3.901,-1.951c1.215,-0.992 2.261,-2.174 3.099,-3.5c1.057,-1.684 1.93,-3.477 2.602,-5.348l15.897,-40.601c0.205,-0.468 0.692,-0.752 1.201,-0.7l0.901,-0c0.463,-0 0.697,0.336 0.697,1l-0,49.1c-0.016,0.108 -0.024,0.217 -0.024,0.327c0,1.259 1.036,2.295 2.295,2.295c0.111,-0 0.222,-0.008 0.331,-0.024l12.2,-0c0.109,0.015 0.218,0.023 0.327,0.023c1.259,0 2.295,-1.036 2.295,-2.295c0,-0.109 -0.008,-0.218 -0.023,-0.326l-0,-55.387c0.027,-1.877 -0.124,-3.753 -0.451,-5.602c-0.221,-1.354 -0.748,-2.639 -1.541,-3.758Z" style="fill:#0433ff;fill-rule:nonzero;"/>
		<path id="Rechteck_70"
		      d="M206.545,66.321c0,-0.668 -0.542,-1.211 -1.211,-1.211l-15.778,0c-0.668,0 -1.211,0.543 -1.211,1.211l0,67.575c0,0.668 0.543,1.211 1.211,1.211l15.778,-0c0.669,-0 1.211,-0.543 1.211,-1.211l0,-67.575Z"
		      style="fill:#0433ff;"/>
		<path id="Pfad_336"
		      d="M441.043,118.21l-40.4,0c-1.814,0.039 -3.626,-0.129 -5.402,-0.5c-1.245,-0.251 -2.392,-0.859 -3.299,-1.75c-0.862,-0.971 -1.431,-2.168 -1.639,-3.45c-0.333,-1.848 -0.484,-3.725 -0.451,-5.603l0,-39.211c0.016,-0.107 0.023,-0.214 0.023,-0.322c0,-1.261 -1.038,-2.299 -2.299,-2.299c-0.109,-0 -0.218,0.007 -0.326,0.023l-12.999,-0c-0.11,-0.016 -0.22,-0.024 -0.331,-0.024c-1.259,-0 -2.295,1.036 -2.295,2.295c-0,0.109 0.008,0.219 0.023,0.327l0,40.982c-0.089,4.137 0.433,8.265 1.549,12.249c0.887,3.119 2.584,5.947 4.918,8.197c2.483,2.234 5.495,3.8 8.75,4.549c4.295,1.013 8.701,1.484 13.114,1.401l41.1,0c1.801,0 2.701,-0.866 2.701,-2.598l0,-11.668c-0.024,-1.732 -0.937,-2.598 -2.737,-2.598Z"
		      style="fill:#0433ff;fill-rule:nonzero;"/>
		<path id="Pfad_337"
		      d="M568.692,64.914c0.109,-0.016 0.218,-0.024 0.327,-0.024c1.263,0 2.303,1.04 2.303,2.303c0,0.11 -0.008,0.219 -0.023,0.327l-0,11.229c-0,1.806 -0.869,2.709 -2.607,2.709l-43.92,-0c-1.789,-0.036 -3.577,0.133 -5.327,0.504c-1.254,0.255 -2.415,0.844 -3.361,1.705c-0.902,0.922 -1.512,2.089 -1.754,3.356c-0.371,1.798 -0.54,3.632 -0.504,5.467l54.264,0c0.108,-0.015 0.217,-0.023 0.326,-0.023c1.264,-0 2.304,1.04 2.304,2.303c-0,0.109 -0.008,0.218 -0.024,0.327l0,9.225c0.016,0.108 0.024,0.217 0.024,0.326c-0,1.264 -1.04,2.303 -2.304,2.303c-0.109,0 -0.218,-0.008 -0.326,-0.023l-54.248,-0c-0.036,1.951 0.133,3.9 0.505,5.815c0.233,1.335 0.822,2.582 1.704,3.611c0.896,0.92 2.049,1.549 3.308,1.803c1.781,0.371 3.598,0.539 5.417,0.5l43.92,-0c0.109,-0.016 0.218,-0.023 0.327,-0.023c1.263,-0 2.303,1.039 2.303,2.303c0,0.109 -0.008,0.218 -0.023,0.326l-0,11.233c0.015,0.109 0.023,0.218 0.023,0.327c0,1.263 -1.04,2.303 -2.303,2.303c-0.109,0 -0.218,-0.008 -0.327,-0.023l-44.223,-0c-4.421,0.082 -8.835,-0.39 -13.139,-1.406c-3.262,-0.752 -6.281,-2.322 -8.77,-4.561c-2.335,-2.258 -4.032,-5.095 -4.917,-8.221c-1.12,-3.999 -1.644,-8.142 -1.554,-12.295l0,-17.245c-0.091,-4.132 0.432,-8.254 1.554,-12.233c0.894,-3.107 2.59,-5.926 4.917,-8.171c2.494,-2.244 5.509,-3.83 8.77,-4.615c4.299,-1.049 8.715,-1.538 13.139,-1.455l44.219,0.013Z"
		      style="fill:#0433ff;fill-rule:nonzero;"/>
		<path id="Pfad_338"
		      d="M317.987,121.063c-0.806,-2.595 -2.272,-4.937 -4.254,-6.795c-2.114,-1.87 -4.643,-3.212 -7.377,-3.914c-3.39,-0.874 -6.883,-1.287 -10.384,-1.229l-33.712,-0c-0.097,-0.01 -0.195,-0.014 -0.292,-0.014c-1.695,-0 -3.09,1.395 -3.09,3.09c-0,0.096 0.004,0.192 0.013,0.288l0,45.617c-0.009,0.096 -0.013,0.192 -0.013,0.288c-0,1.697 1.397,3.094 3.094,3.094c0.096,-0 0.192,-0.004 0.288,-0.013l33.712,-0c3.501,0.059 6.994,-0.355 10.384,-1.23c2.734,-0.702 5.263,-2.043 7.377,-3.914c1.982,-1.858 3.448,-4.2 4.254,-6.794c0.924,-3.045 1.365,-6.216 1.307,-9.398l0,-9.692c0.057,-3.177 -0.384,-6.344 -1.307,-9.384Zm-41.846,3.77l18.728,-0c1.249,-0.025 2.498,0.091 3.721,0.344c0.754,0.147 1.449,0.51 2,1.045c0.534,0.587 0.905,1.303 1.078,2.078c0.275,1.236 0.4,2.5 0.373,3.766l-0,6.5c0.026,1.278 -0.1,2.555 -0.377,3.803c-0.268,1.588 -1.513,2.842 -3.098,3.123c-1.21,0.272 -2.449,0.398 -3.689,0.373l-18.736,-0l-0,-21.032Z"
		      style="fill:#0433ff;fill-rule:nonzero;"/>
		<path id="Pfad_339"
		      d="M317.987,50.463c-0.806,-2.595 -2.272,-4.936 -4.254,-6.794c-2.114,-1.871 -4.643,-3.212 -7.377,-3.914c-3.39,-0.874 -6.883,-1.287 -10.384,-1.23l-33.712,0c-0.096,-0.009 -0.192,-0.013 -0.288,-0.013c-1.697,0 -3.094,1.397 -3.094,3.094c0,0.095 0.005,0.19 0.013,0.284l0,45.617c-0.008,0.094 -0.013,0.189 -0.013,0.284c0,1.697 1.397,3.094 3.094,3.094c0.096,-0 0.192,-0.005 0.288,-0.014l33.712,0c3.501,0.059 6.994,-0.355 10.384,-1.229c2.734,-0.702 5.263,-2.044 7.377,-3.914c1.983,-1.858 3.449,-4.2 4.254,-6.795c0.924,-3.046 1.365,-6.218 1.307,-9.401l0,-9.667c0.058,-3.183 -0.383,-6.355 -1.307,-9.402Zm-41.838,3.767l18.728,-0c1.25,-0.024 2.498,0.093 3.721,0.348c0.753,0.147 1.448,0.508 2,1.041c0.535,0.588 0.906,1.306 1.078,2.082c0.276,1.236 0.401,2.5 0.373,3.766l0,6.5c0.026,1.276 -0.1,2.552 -0.377,3.799c-0.266,1.588 -1.512,2.843 -3.098,3.122c-1.21,0.273 -2.448,0.398 -3.688,0.373l-18.745,0l0.008,-21.031Z"
		      style="fill:#0433ff;fill-rule:nonzero;"/></g></svg>